,
.   http://www.scenetime.com/signup.php  ---&gt;  Hottest scene tracker on the net !!!  

    Join Now   http://www.scenetime.com/signup.php

    seed back for speed


 



...................................NFO:.................................................***********************************************************************************************
The.Penguins.Of.Madagascar.All.Nighter.Before.XmaS.2011.AC3.DVDRip-RemixHD
***********************************************************************************************



General Information

[pre]Sample Included......: Yes 

Source...............: NORDIC.PAL.DVDR-WILDER

Container............: ISO DVD

Length...............:1h 41mn

Size.................:2.45 GiB

Total Bitrate........: 1 667 Kbps

IMDb Information.....: http://www.amazon.co.uk/Penguins-Madagascar-Nighter-Before-Xmas/dp/B005DS0X8I  

Genre................:  Animation/Family


Video
ID                                       : 0
Format                                   : MPEG-4 Visual
Format profile                           : Advanced Simple@L5
Format settings, BVOP                    : 2
Format settings, QPel                    : No
Format settings, GMC                     : No warppoints
Format settings, Matrix                  : Default (H.263)
Codec ID                                 : XVID
Codec ID/Hint                            : XviD
Duration                                 : 1h 41mn
Bit rate                                 : 1 667 Kbps
Width                                    : 720 pixels
Height                                   : 400 pixels
Display aspect ratio                     : 16:9
Frame rate                               : 25.000 fps
Color space                              : YUV
Chroma subsampling                       : 4:2:0
Bit depth                                : 8 bits
Scan type                                : Progressive
Compression mode                         : Lossy
Bits/(Pixel*Frame)                       : 0.231
Stream size                              : 1.18 GiB (86%)
Writing library                          : XviD 1.2.1 (UTC 2008-12-04)

Audio
ID                                       : 1
Format                                   : AC-3
Format/Info                              : Audio Coding 3
Mode extension                           : CM (complete main)
Codec ID                                 : 2000
Duration                                 : 1h 41mn
Bit rate mode                            : Constant
Bit rate                                 : 256 Kbps
Channel(s)                               : 6 channels
Channel positions                        : Front: L C R, Side: L R, LFE
Sampling rate                            : 48.0 KHz
Bit depth                                : 16 bits
Compression mode                         : Lossy
Delay relative to video                  : 940ms
Stream size                              : 186 MiB (13%)
Alignment                                : Split accross interleaves
Interleave, duration                     : 40 ms (1.00 video frame)
Interleave, preload duration             : 500 ms[/pre]

Releasers Notes:


Enjoy with your kids or fire it on to keep em quiet lol!!



Reidy






Greetz to Rx,Thorn,EMBER,Blaze,IMAGINE,Remix-Extreme,TLS,DDL Uploaders and every1 else i know past and present

Looking for Encoders to join our Group or got anything to offer ....Email us remixhd@hushmail.com